<svg width="37" height="56" viewBox="0 0 37 56" fill="none" xmlns="http://www.w3.org/2000/svg">
<path fill-rule="evenodd" clip-rule="evenodd" d="M17.2385 1.0017C13.7913 1.04014 10.1741 1.73359 7.41967 3.43631C1.92558 6.83266 1 12.9455 1 16.3245C1 17.0956 1.24966 18.1488 1.67308 19.3372C2.09264 20.5148 2.66758 21.784 3.28407 22.972C3.90057 24.1601 4.55336 25.2569 5.12484 26.0903C5.41098 26.5076 5.67199 26.8519 5.89384 27.1063C6.1299 27.3771 6.2796 27.4963 6.34025 27.5266C6.35827 27.5357 6.37605 27.5452 6.39358 27.5551C5.74934 26.7009 5.13725 25.9265 4.68923 25.3777L4.65795 25.3394L4.63478 25.2957C3.68542 23.5044 2.63106 20.4659 2.52518 17.1204C2.41901 13.7659 3.26736 10.068 6.17152 7.03376C8.11329 5.00504 10.355 4.08139 12.592 3.82882C14.8312 2.4773 18.9602 1.0874 23.0894 3.18951C25.9826 4.66244 28.2261 6.23115 29.9333 8.16692C31.6446 10.1074 32.7953 12.3916 33.5397 15.2629C34.3085 18.2285 33.4797 21.9149 32.2597 25.0108C31.645 26.5708 30.9207 28.0067 30.2218 29.1623C29.531 30.3042 28.8401 31.214 28.2812 31.6847C27.9688 31.9477 27.6725 32.3915 27.4056 32.988C27.1419 33.5773 26.9237 34.2774 26.7473 35.0125C26.5219 35.952 26.3697 36.9281 26.2759 37.7665C26.31 37.7326 26.344 37.6982 26.3777 37.6633C26.7453 37.2834 27.0749 36.8617 27.3097 36.4479C27.5484 36.0272 27.6672 35.6534 27.6672 35.3587C27.6672 34.9 27.8908 34.3114 28.1718 33.7284C28.465 33.1198 28.866 32.4286 29.3042 31.7327C30.1723 30.3542 31.2093 28.9215 31.9092 28.0099C32.9112 26.2195 34.232 23.2435 34.9476 20.1211C35.6724 16.9588 35.7487 13.7668 34.3939 11.483C32.5712 8.41056 31.375 6.58547 30.1581 5.3058C28.9595 4.0454 27.7244 3.29772 25.7787 2.42731C23.8872 1.58108 20.6874 0.963235 17.2385 1.0017ZM25.8153 39.4292C26.2395 39.1555 26.6873 38.7814 27.0963 38.3587C27.5088 37.9325 27.8942 37.4441 28.1795 36.9413C28.4609 36.4454 28.6672 35.8961 28.6672 35.3587C28.6672 35.1518 28.7902 34.7487 29.0726 34.1625C29.3428 33.6018 29.7219 32.9461 30.1504 32.2656C31.0067 30.9058 32.0372 29.4835 32.7239 28.5907L32.7459 28.5622L32.7635 28.5308C33.805 26.6773 35.1773 23.5955 35.9223 20.3445C36.6624 17.1153 36.8115 13.5985 35.2539 10.9728C33.4362 7.90864 32.1881 5.98931 30.8827 4.61667C29.5591 3.22477 28.1939 2.41228 26.1871 1.51449C24.1262 0.592514 20.7732 -0.0377843 17.2273 0.0017608C13.6797 0.0413257 9.8601 0.752036 6.89385 2.58572C0.946629 6.26218 0 12.8387 0 16.3245C0 17.2697 0.2964 18.4528 0.73108 19.6728C1.16962 20.9037 1.76482 22.2154 2.39646 23.4326C3.02811 24.6499 3.70147 25.7828 4.30012 26.6558C4.59905 27.0918 4.8841 27.4699 5.14005 27.7635C5.3818 28.0408 5.64164 28.2954 5.89303 28.4211C5.93764 28.4434 6.0337 28.5197 6.16939 28.7153C6.29892 28.9021 6.43677 29.1565 6.58173 29.4737C6.87163 30.108 7.16337 30.9335 7.46217 31.8364C7.57464 32.1762 7.68829 32.5281 7.80312 32.8836L7.80324 32.8839C8.28604 34.3785 8.78967 35.9376 9.31376 36.9421C9.98282 38.2245 10.9219 39.0091 11.7384 39.4502C11.5931 39.7504 11.5302 40.0688 11.5265 40.3702C11.5203 40.8717 11.6716 41.3284 11.8329 41.6495C11.7594 41.784 11.7001 41.924 11.6572 42.0674C11.5617 42.3874 11.5464 42.7369 11.6549 43.0672C11.4077 43.3942 11.2903 43.7839 11.266 44.1539C11.245 44.4733 11.2913 44.8018 11.4006 45.098C11.2802 45.2256 11.1883 45.371 11.1255 45.5307C11.0105 45.8232 11.0079 46.125 11.0507 46.3907C11.1049 46.7269 11.2392 47.0519 11.3837 47.3217C11.2759 47.4469 11.1939 47.5874 11.1372 47.7392C11.0257 48.0377 11.0232 48.3479 11.0648 48.6223C11.1179 48.9727 11.2503 49.3139 11.3958 49.5962C11.282 49.7248 11.196 49.8701 11.1372 50.0275C11.0257 50.326 11.0232 50.6361 11.0648 50.9106C11.1289 51.334 11.3089 51.744 11.4878 52.0528C11.3833 52.3653 11.3085 52.7709 11.3413 53.201C11.3856 53.7818 11.63 54.4204 12.2653 54.8969C12.518 55.0864 12.9215 55.207 13.3345 55.2957C13.7746 55.3903 14.32 55.4665 14.9281 55.5244C16.1459 55.6404 17.6518 55.6862 19.1443 55.6468C20.6345 55.6074 22.1306 55.4825 23.3234 55.251C23.9184 55.1355 24.4569 54.99 24.8876 54.8059C25.2971 54.6309 25.704 54.3819 25.9047 54.0027C26.6001 52.6891 26.4248 51.6828 26.0209 51.1378C26.1705 50.5512 26.1794 50.0803 26.0928 49.7102C26.0524 49.5377 25.9891 49.3819 25.9072 49.2491L25.9437 49.1216C26.0593 48.717 26.127 48.2569 26.1319 47.8725C26.1343 47.6827 26.1219 47.4866 26.0804 47.3158C26.0626 47.2424 26.0359 47.1587 25.9934 47.077C26.0659 46.6922 26.0874 46.2472 26.0721 45.8696C26.0623 45.6309 26.037 45.3949 25.9911 45.1999C25.9701 45.1111 25.9411 45.0139 25.8983 44.923C25.9714 44.5469 25.9803 44.1335 25.9165 43.7637C25.8771 43.5347 25.7981 43.263 25.6476 43.0312C25.7543 42.6347 25.8105 42.1766 25.7648 41.7652C25.7571 41.6962 25.7458 41.6233 25.7297 41.5488L25.7722 41.4383C26.0539 40.7057 26.0595 40.0323 25.831 39.4669C25.8258 39.4542 25.8206 39.4416 25.8153 39.4292ZM25.1935 38.617C25.2662 37.5918 25.4452 36.1536 25.7749 34.7792C25.96 34.0079 26.1955 33.244 26.4928 32.5795C26.7869 31.9222 27.1589 31.3224 27.637 30.9198C28.0662 30.5584 28.6885 29.765 29.3661 28.6447C30.0356 27.5379 30.735 26.1526 31.3294 24.6442C32.5276 21.6034 33.259 18.165 32.5717 15.5139C31.8599 12.7686 30.7743 10.6324 29.1833 8.82837C27.5882 7.01971 25.4631 5.52008 22.6357 4.08067C19.857 2.66606 17.0496 3.01314 14.9571 3.79399C15.2959 3.82005 15.632 3.85843 15.9643 3.90752C18.5328 4.28702 20.8992 5.30778 22.5906 6.25379C24.5992 6.76832 26.1093 7.46377 26.919 8.00358C27.8551 8.62765 29.6233 9.87579 30.4554 13.3082C30.6392 14.0662 30.7925 14.6619 30.9188 15.1524C31.3642 16.8829 31.4726 17.304 31.3915 18.9248C31.2875 21.0051 30.3514 24.8535 29.7274 25.8936C29.1033 26.9337 26.815 30.2621 26.711 30.3661L26.6941 30.3827C26.4905 30.5816 24.9391 32.097 24.8388 33.9025C24.7556 35.4003 24.5961 36.6762 24.5268 37.1269C24.443 37.3781 24.2245 37.9124 23.9254 38.3717C24.0456 38.3526 24.17 38.3349 24.2987 38.3189L24.5747 38.2844L24.8289 38.3973C24.9508 38.4515 25.0744 38.5248 25.1935 38.617ZM21.8642 39.0194C21.8611 38.9654 21.8551 38.9111 21.846 38.8565L21.8447 38.8466L21.8426 38.8268C21.8405 38.8046 21.8381 38.7731 21.8361 38.7304C21.832 38.6439 21.83 38.5248 21.8321 38.3643C21.8365 38.042 21.8572 37.5892 21.9017 36.9596C21.9906 35.7016 22.1701 33.8001 22.4816 30.9448C22.7829 28.1832 23.1801 26.2717 23.5308 24.9924C23.6563 24.9661 23.7766 24.9368 23.8917 24.9047C24.5057 24.7338 25.082 24.4534 25.4723 24.0547C25.6906 23.854 25.9849 23.5318 26.1915 23.1332C26.3874 22.7552 26.7906 21.6675 25.8996 20.7765C25.2184 20.0953 24.2594 20.0343 23.6588 20.1172C23.0326 20.2035 22.0925 20.5434 21.625 21.4784C21.5506 21.6272 21.4536 21.8316 21.3408 22.1022C21.3066 22.0987 21.2729 22.0949 21.2396 22.0908C22.214 20.6235 22.1391 19.0615 21.7488 18.1347L21.7185 18.0625L21.6807 17.9939C21.4063 17.4949 20.8047 16.6921 19.8352 16.3683C19.2987 16.1891 18.6834 16.173 18.0646 16.4146C17.4725 16.6458 16.9846 17.0703 16.5821 17.5878C15.7043 18.7164 15.5505 19.9322 15.7537 20.9604C15.8399 21.3964 15.9883 21.7949 16.1655 22.1438C15.9631 22.2212 15.7672 22.2875 15.5814 22.344C15.5431 22.2588 15.5074 22.1832 15.4748 22.1174C15.2706 21.69 14.7878 20.9199 13.9212 20.5824C13.4133 20.3846 12.8204 20.3598 12.2342 20.6013C11.6889 20.8259 11.2678 21.231 10.9399 21.6782C10.5637 22.1912 10.2302 22.9566 10.514 23.8092C10.7745 24.5921 11.4129 24.9873 11.8076 25.172C12.3586 25.4298 13.0101 25.5473 13.5591 25.5956C13.7456 26.233 13.9389 26.9913 14.111 27.852C14.6109 30.3514 16.0988 36.6339 16.8014 39.5524C18.0183 39.6055 19.6627 39.6231 21.2408 39.5019C21.409 39.3197 21.62 39.1591 21.8642 39.0194ZM13.018 38.3633C12.9843 38.2483 12.9385 38.1445 12.8775 38.063C12.6278 37.7302 12.7734 36.8842 12.8775 36.5028C12.6348 35.7054 12.1286 33.8401 12.0454 32.7584C11.9622 31.6767 10.4852 29.3954 9.7571 28.3899C9.02902 27.5578 7.48965 25.5608 7.15681 24.2294C7.10328 24.0153 7.04287 23.7909 6.97956 23.5557C6.55076 21.9627 5.98895 19.8756 6.53274 17.1566C7.15681 14.0363 8.50893 9.97981 9.44504 9.45975C9.56915 9.3908 9.68778 9.29625 9.80771 9.18313C10.0121 8.32919 10.2429 7.4836 10.4834 6.75261C10.6506 6.24428 10.8258 5.78128 11.0039 5.40578C11.049 5.31075 11.0965 5.21646 11.1465 5.12538C9.64793 5.54842 8.19726 6.36354 6.89394 7.72521C4.22306 10.5157 3.42456 13.9252 3.52468 17.0888C3.62423 20.2342 4.61307 23.1022 5.49557 24.7842C6.19532 25.6431 7.2662 27.0144 8.25027 28.3933C9.23652 29.7752 10.1771 31.2211 10.5364 32.1643C10.9629 33.2838 11.3846 34.7623 11.6989 36.0458C11.8565 36.6893 11.9885 37.2895 12.0815 37.7777C12.1382 38.0753 12.1838 38.3482 12.2097 38.5685C12.2761 38.6045 12.341 38.6374 12.404 38.6674C12.4568 38.6294 12.5125 38.5928 12.571 38.5577L12.9324 38.3408L13.018 38.3633ZM12.6407 42.2793C13.6222 42.4469 15.6381 42.5994 17.9033 42.6124C20.1177 42.625 22.6537 42.5051 24.7804 42.1091C24.7775 42.2515 24.7604 42.4048 24.7311 42.5577C24.4833 42.6282 24.1968 42.6956 23.8763 42.7584C20.8665 43.2925 17.6507 43.2731 15.1662 43.0534C14.303 42.9751 13.4383 42.8635 12.5937 42.7135C12.5698 42.6122 12.574 42.4923 12.6154 42.3536C12.6227 42.3291 12.6312 42.3043 12.6407 42.2793ZM14.2296 6.54742C12.7981 6.73213 11.8791 7.22437 11.2178 7.76017C11.2886 7.51882 11.3606 7.28604 11.4333 7.06511C11.5937 6.57753 11.754 6.15773 11.9074 5.8344C12.0678 5.49625 12.1921 5.32693 12.2586 5.26972C12.4461 5.12 12.6684 4.96091 12.9215 4.79963C13.892 4.71036 14.8661 4.75612 15.8181 4.89678C17.1104 5.08772 18.3545 5.45327 19.4789 5.88982C17.5789 5.93899 15.3767 6.30334 14.2296 6.54742ZM7.49126 29.0581L7.48259 29.0391C8.45983 30.4127 9.30028 31.7286 9.60189 32.5203C10.0075 33.5851 10.4179 35.019 10.7276 36.2837C10.8505 36.7853 10.9566 37.2567 11.0397 37.6639C10.738 37.3453 10.4483 36.9547 10.2003 36.4796C9.71958 35.5581 9.25212 34.1127 8.77072 32.6243L8.77067 32.6242L8.77062 32.624L8.77057 32.6238C8.65187 32.2568 8.53233 31.8872 8.41153 31.5222C8.11226 30.6179 7.80593 29.7466 7.49126 29.0581ZM18.976 19.9116C18.9368 20.0639 18.8623 20.2537 18.7166 20.4644C18.7091 20.4362 18.7025 20.4077 18.6968 20.3788C18.6434 20.1085 18.6629 19.7989 18.9501 19.4297C18.9682 19.4064 18.9854 19.3853 19.0015 19.3662C19.0076 19.3962 19.0137 19.436 19.0173 19.4851C19.0257 19.6007 19.0182 19.7471 18.976 19.9116ZM16.56 25.1815C17.1664 24.9911 17.8268 24.7293 18.4943 24.3771C19.037 24.6439 19.6848 24.8685 20.4312 25.0018C20.0977 26.3837 19.7615 28.2163 19.4993 30.6195C19.256 32.8495 19.0903 34.5232 18.9849 35.7762C18.2658 32.7358 17.4031 29.0154 17.0527 27.2636C16.9007 26.5032 16.7317 25.8055 16.56 25.1815ZM13.0547 22.4419C13.0551 22.4417 13.0604 22.4444 13.0696 22.4502C13.0589 22.4449 13.0543 22.442 13.0547 22.4419ZM12.6965 23.3007C12.6934 23.2979 12.692 23.2964 12.692 23.2963C12.692 23.2962 12.6935 23.2975 12.6965 23.3007ZM12.4299 43.7025C13.145 43.834 14.0329 43.9558 15.0367 44.0457C16.6688 44.1956 18.2916 44.229 19.772 44.1794C21.4176 44.1242 22.91 43.9657 24.0546 43.7424C24.3112 43.6968 24.5664 43.6473 24.8199 43.5938C24.8563 43.6537 24.9008 43.7579 24.9311 43.9336C24.968 44.1478 24.968 44.3946 24.9348 44.6247C23.248 45.0445 21.352 45.2678 19.5172 45.3454C17.2151 45.4319 14.6416 45.3059 12.3586 44.8016C12.289 44.6385 12.2498 44.4324 12.2638 44.2195C12.2769 44.0209 12.3338 43.8434 12.4299 43.7025ZM19.5578 46.3446C19.6172 46.3423 19.6765 46.3399 19.7356 46.3374C21.9022 46.2453 23.8322 45.9708 25.053 45.6441C25.062 45.7229 25.0689 45.8124 25.0729 45.9102C25.085 46.207 25.0685 46.53 25.0269 46.7976C23.2384 47.1794 20.3306 47.5377 17.2153 47.4727C16.4469 47.4519 15.7218 47.4112 15.0663 47.3578C14.1491 47.2771 13.2319 47.153 12.337 46.976C12.2011 46.7488 12.0775 46.4772 12.038 46.2316C12.014 46.083 12.0258 45.9739 12.0561 45.8967C12.0695 45.8627 12.0899 45.8259 12.1241 45.7885C13.3854 46.1353 15.4811 46.3646 17.8004 46.3769C18.3724 46.3799 18.9611 46.3698 19.5578 46.3446ZM12.1488 47.966C12.7948 48.1168 13.795 48.2579 14.9954 48.3554C15.7301 48.4196 16.4639 48.457 17.1865 48.4723C17.3539 48.4768 17.5229 48.4804 17.6933 48.4831C20.0885 48.5199 22.8197 48.3623 25.1321 47.8147L25.1322 47.8316L25.132 47.8597C25.1289 48.0957 25.0932 48.3842 25.0308 48.6571C24.0036 49.2168 22.1361 49.6389 19.8532 49.7854C17.5264 49.9347 14.8481 49.7928 12.3556 49.2677C12.2219 49.0378 12.0946 48.7437 12.0535 48.4725C12.0283 48.3066 12.0401 48.1799 12.074 48.0892C12.0896 48.0475 12.1123 48.006 12.1488 47.966ZM25.2957 51.8836C23.9479 52.4004 21.3061 53.002 17.7136 52.9947C16.0998 52.9981 14.3084 52.8767 12.3822 52.5644C12.3448 52.7318 12.3232 52.9261 12.3384 53.1249C12.3651 53.4749 12.5022 53.8245 12.8653 54.0969C12.9247 54.1414 13.129 54.2288 13.5445 54.318C13.9328 54.4015 14.4365 54.4731 15.0229 54.5289C16.1941 54.6405 17.659 54.6857 19.1179 54.6471C20.579 54.6085 22.0148 54.4863 23.1329 54.2693C23.6935 54.1605 24.1552 54.0314 24.4945 53.8864C24.8549 53.7323 24.9876 53.5977 25.0209 53.5349C25.473 52.6809 25.4071 52.1528 25.2957 51.8836ZM17.7044 51.9948C21.2209 51.9881 23.8296 51.3689 25.0494 50.9006C25.1733 50.4201 25.1602 50.1137 25.1191 49.9382C25.1141 49.9169 25.1088 49.8978 25.1034 49.8806C22.735 50.6901 20.1062 50.9201 17.7732 50.8806C15.4711 50.8416 13.426 50.5396 12.1519 50.2509C12.1136 50.2919 12.09 50.3346 12.074 50.3775C12.0401 50.4682 12.0283 50.5949 12.0535 50.7607C12.0939 51.0273 12.2176 51.316 12.3487 51.544C14.3151 51.8635 16.111 51.991 17.7044 51.9948Z" fill="white"/>
</svg>
