<svg width="56" height="56" viewBox="0 0 56 56" fill="none" xmlns="http://www.w3.org/2000/svg">
<path fill-rule="evenodd" clip-rule="evenodd" d="M56 28C56 43.464 43.464 56 28 56C12.536 56 0 43.464 0 28C0 12.536 12.536 0 28 0C43.464 0 56 12.536 56 28ZM53.7254 27.9458C53.7254 42.1835 42.1835 53.7253 27.9459 53.7253C13.7083 53.7253 2.16642 42.1835 2.16642 27.9458C2.16642 13.7082 13.7083 2.16635 27.9459 2.16635C42.1835 2.16635 53.7254 13.7082 53.7254 27.9458ZM42.027 13.8646L32.8183 32.8184L13.8645 42.0271L23.0732 23.0733L42.027 13.8646ZM30.4532 27.9577C30.4532 29.3542 29.3211 30.4864 27.9245 30.4864C26.5279 30.4864 25.3958 29.3542 25.3958 27.9577C25.3958 26.5611 26.5279 25.4289 27.9245 25.4289C29.3211 25.4289 30.4532 26.5611 30.4532 27.9577Z" fill="white"/>
</svg>
