<svg width="56" height="56" viewBox="0 0 56 56" fill="none" xmlns="http://www.w3.org/2000/svg">
<path fill-rule="evenodd" clip-rule="evenodd" d="M40.8252 5.2907C40.4506 5.94008 40.6731 6.77055 41.3223 7.14561C41.9714 7.52066 42.8013 7.29829 43.1759 6.64891L45.8365 2.03715C46.2111 1.38778 45.9886 0.557312 45.3395 0.182252C44.6904 -0.192807 43.8604 0.0295685 43.4858 0.678943L40.8252 5.2907ZM17.5042 11.564C18.1129 12.6605 19.1842 15.5843 18.5999 18.5082L29.9212 6.81276C30.4081 5.71632 30.9437 3.37724 29.1907 2.79247C26.9995 2.06151 26.2691 2.42699 25.1735 3.52343C24.297 4.40059 19.6955 9.2493 17.5042 11.564ZM15.6783 23.2595L16.4087 17.4118C16.6522 15.9498 16.5548 13.0991 14.2175 13.3915C11.8802 13.6839 11.2959 14.9752 11.2959 15.5844C11.2959 18.1427 10.9307 24.0635 9.46985 27.2798C8.00904 30.496 6.66996 33.4929 6.18303 34.5894C5.33089 36.5386 4.21093 41.6797 6.54823 46.6503C8.88553 51.6208 13.3653 54.3254 15.3131 55.0563C17.626 55.9091 23.2015 56.9568 26.9996 54.3254C29.6839 52.4656 30.0333 51.9567 30.3941 51.4311C30.5438 51.213 30.6955 50.9921 31.0168 50.6706L50.3726 31.3C51.103 30.3254 51.9795 28.0838 49.6422 26.9143C48.1174 26.1513 47.0857 26.5488 46.3553 27.2798L38.3209 35.3203C38.0774 35.564 37.4444 35.9782 36.8601 35.6858C36.1297 35.3203 36.1297 34.9549 36.8601 34.2239L48.5466 22.5285C49.3911 21.6833 49.6422 19.6047 47.8161 18.5082C45.9569 17.3918 45.0137 18.3714 44.603 18.798C44.5762 18.8258 44.5517 18.8513 44.5293 18.8737C44.4912 18.9119 44.3405 19.0647 44.099 19.3097L44.0925 19.3164L44.0911 19.3178L44.0899 19.3189C42.4698 20.9627 36.8481 26.6665 33.5732 29.8381C32.8428 30.5455 31.7472 30.5691 31.382 30.2036C30.8046 29.6257 30.6516 29.4726 31.7472 28.3762L44.1641 15.9498C44.8945 15.2189 45.4081 13.5399 44.1641 12.295C42.7033 10.8331 41.6077 10.8331 40.5121 11.5641C40.0495 11.8727 36.0216 15.957 32.1377 19.8953L32.1371 19.8958L32.1353 19.8977C30.2471 21.8123 28.3932 23.6922 26.9996 25.0869C26.7561 25.3305 26.1231 25.6716 25.5388 25.0869C24.9544 24.5021 25.5388 23.6249 25.904 23.2595L36.8601 12.295C37.2253 11.5641 37.5905 10.5407 36.1297 9.37118C34.3036 7.90925 32.8428 8.64021 31.7472 9.73666L17.5043 23.9904C17.1391 24.4777 16.2627 25.0138 15.6783 23.2595ZM5.81777 29.1072C3.18831 33.493 3.26135 39.7062 3.62655 42.2646C-1.34022 35.5397 -0.147208 28.4981 1.07014 25.8179C1.92228 24.4778 3.77264 20.9936 4.35697 17.7773C4.9413 14.5611 5.57431 10.1022 5.81777 8.27481C5.81777 7.66567 6.64814 5.82967 9.10461 6.81288C10.9306 7.54374 11.4175 9.61491 10.9306 10.8332C9.17762 12.5875 8.98288 15.8281 9.10461 16.3154C9.10461 19.3611 8.44723 24.7215 5.81777 29.1072ZM45.5862 10.1445C45.0593 9.6109 45.0645 8.75094 45.5977 8.2237L49.382 4.48154C49.9151 3.9543 50.7744 3.95944 51.3013 4.49301C51.8281 5.02659 51.823 5.88655 51.2898 6.41379L47.5055 10.156C46.9723 10.6832 46.113 10.6781 45.5862 10.1445ZM49.3571 12.3466C48.7077 12.7218 48.4851 13.5526 48.8599 14.2022C49.2347 14.8518 50.0649 15.0743 50.7143 14.6991L55.3208 12.0375C55.9701 11.6623 56.1927 10.8315 55.818 10.1819C55.4432 9.53228 54.6129 9.30982 53.9636 9.68502L49.3571 12.3466Z" fill="white"/>
</svg>
