<svg width="72" height="56" viewBox="0 0 72 56" fill="none" xmlns="http://www.w3.org/2000/svg">
<path fill-rule="evenodd" clip-rule="evenodd" d="M2 0C0.895431 0 0 0.895431 0 2C0 3.10457 0.895431 4 2 4L9.13298 4L3.2381 26H1C1 27.3132 1.25866 28.6136 1.7612 29.8268C2.26375 31.0401 3.00035 32.1425 3.92893 33.0711C4.85752 33.9997 5.95991 34.7362 7.17317 35.2388C8.38642 35.7413 9.68678 36 11 36C12.3132 36 13.6136 35.7413 14.8268 35.2388C16.0401 34.7362 17.1425 33.9997 18.0711 33.0711C18.9997 32.1425 19.7362 31.0401 20.2388 29.8268C20.7413 28.6136 21 27.3132 21 26H19.0446L13.1497 4L33 4V44H23C21.3431 44 20 45.3431 20 47V51H12.5C11.1193 51 10 52.1193 10 53.5C10 54.8807 11.1193 56 12.5 56H59.5C60.8807 56 62 54.8807 62 53.5C62 52.1193 60.8807 51 59.5 51H53V47C53 45.3431 51.6569 44 50 44H39V4H59.133L53.2382 26H51C51 27.3132 51.2587 28.6136 51.7612 29.8268C52.2638 31.0401 53.0003 32.1425 53.9289 33.0711C54.8575 33.9997 55.9599 34.7362 57.1732 35.2388C58.3864 35.7413 59.6868 36 61 36C62.3132 36 63.6136 35.7413 64.8268 35.2388C66.0401 34.7362 67.1425 33.9997 68.0711 33.0711C68.9997 32.1425 69.7363 31.0401 70.2388 29.8268C70.7413 28.6136 71 27.3132 71 26H69.0446L63.1497 4H70C71.1046 4 72 3.10457 72 2C72 0.895431 71.1046 0 70 0H2ZM65.9388 26L61.1414 8.09588L56.344 26H61H65.9388ZM11 26H6.34393L11.1413 8.09587L15.9387 26H11ZM22 51H51V48C51 46.8954 50.1046 46 49 46H24C22.8954 46 22 46.8954 22 48V51Z" fill="white"/>
</svg>
