<svg width="655" height="748" viewBox="0 0 655 748" fill="none" xmlns="http://www.w3.org/2000/svg">
<rect x="1" y="155" width="1" height="383" fill="#A3A3A3"/>
<path d="M2.00024 538L2.00022 537L78.0002 581L78.0002 582L2.00024 538Z" fill="#A3A3A3"/>
<path d="M78 110L78 111L1.99987 155L0.999864 155L78 110Z" fill="#A3A3A3"/>
<path d="M609.477 606.456L613.5 605L366.5 748L366.5 747L609.477 606.456Z" fill="#A3A3A3"/>
<path d="M366.5 747L366.5 748L188.5 645L189.5 645L366.5 747Z" fill="#A3A3A3"/>
<path d="M653.5 582V110V123" stroke="#D5AE36"/>
<path d="M229 23L230.5 23L77.9997 111L77.9998 110L229 23Z" fill="#D5AE36"/>
<path d="M653 581.5L654 582L613.5 605L612 605L653 581.5Z" fill="#D5AE36"/>
<path d="M654.077 110.045L653 110.5L464.29 1.16852L465.29 0.668429L654.077 110.045Z" fill="#D5AE36"/>
<path d="M78.0021 582.001L77.9999 581L189.5 645L188.5 645L78.0021 582.001Z" fill="#D5AE36"/>
</svg>
