<svg width="75" height="105" viewBox="0 0 75 105" fill="none" xmlns="http://www.w3.org/2000/svg">
<path fill-rule="evenodd" clip-rule="evenodd" d="M0 36.7502C0 16.5368 16.8741 0 37.5 0C58.1259 0 75 16.5368 75 36.7502C75 64.3125 37.5 105 37.5 105C37.5 105 0 64.3125 0 36.7502Z" fill="#FFB005"/>
<path d="M23 38.1687C26.7783 44.3759 33.5703 49.751 36.494 51.6627H32.4458C29.4096 49.3012 25.3614 45.5904 23 42.2169V38.1687Z" fill="black"/>
<path d="M23 46.9398L28.0602 52.0001H23V46.9398Z" fill="black"/>
<path d="M23 32.7711C26.2386 41.4072 36.1566 49.3012 41.8916 51.6627H50.6627V24H23V32.7711Z" fill="white"/>
</svg>
