<svg width="73" height="72" viewBox="0 0 73 72" fill="none" xmlns="http://www.w3.org/2000/svg">
<path fill-rule="evenodd" clip-rule="evenodd" d="M36.1809 54.5023C29.6495 54.5023 23.0139 50.6377 19.1413 45.5224C0.561645 45.5224 0 71.979 0 71.979H72.3573C72.3573 71.979 73.8158 45.405 52.9216 45.405C49.0535 50.5835 42.7123 54.5023 36.1809 54.5023Z" fill="white"/>
<path fill-rule="evenodd" clip-rule="evenodd" d="M51.7438 22.7861C51.7438 30.3981 44.7731 44.9539 36.1672 44.9539C27.5749 44.9539 20.5996 30.3936 20.5996 22.7861C20.5996 15.1787 27.5704 9.00244 36.1672 9.00244C44.7731 9.00696 51.7438 15.1832 51.7438 22.7861Z" fill="white"/>
<path fill-rule="evenodd" clip-rule="evenodd" d="M58.692 16.2171C58.692 14.7904 56.6991 13.6391 54.226 13.6301V10.691C54.226 10.2531 54.3936 0 36.2216 0C18.0587 0 18.2263 10.2531 18.2263 10.691V13.734C18.181 13.734 18.1447 13.7204 18.104 13.7204C15.6445 13.7204 13.6652 14.8536 13.6652 16.2577V28.6914C13.6652 30.0865 15.649 31.2242 18.104 31.2242C20.5589 31.2242 22.5519 30.0865 22.5519 28.6914V16.2577C22.5519 16.0636 22.4296 15.8875 22.3571 15.7069V12.3163C22.3571 12.0048 21.0526 4.26647 36.2216 4.26647C51.3952 4.26647 49.8189 12.0048 49.8189 12.3163V15.8875C49.7917 16.0004 49.7057 16.0997 49.7057 16.2171V28.9352C49.7057 30.3664 51.7122 31.5267 54.1989 31.5267C54.2532 31.5267 54.294 31.5086 54.3483 31.5086V36.1544H49.8914V40.5337H58.7373L58.692 16.2171Z" fill="white"/>
</svg>
