<svg width="82" height="83" viewBox="0 0 82 83" fill="none" xmlns="http://www.w3.org/2000/svg">
<path fill-rule="evenodd" clip-rule="evenodd" d="M4 35.5385C4 18.114 18.0772 4 35.4286 4C52.7799 4 66.8572 18.114 66.8572 35.5385C66.8572 52.9629 52.7799 67.0769 35.4286 67.0769C18.0772 67.0769 4 52.9629 4 35.5385ZM35.4286 0C15.8557 0 0 15.9173 0 35.5385C0 55.1596 15.8557 71.0769 35.4286 71.0769C44.4945 71.0769 52.7629 67.662 59.0276 62.0457C59.0362 62.0551 59.0449 62.0643 59.0536 62.0735L59.0681 62.0884L59.0835 62.104L78.5835 81.668C79.3632 82.4503 80.6296 82.4524 81.4119 81.6726C82.1942 80.8929 82.1963 79.6265 81.4165 78.8442L61.9165 59.2802C61.8945 59.2581 61.872 59.2366 61.8492 59.2158C67.4518 52.9292 70.8572 44.6316 70.8572 35.5385C70.8572 15.9173 55.0014 0 35.4286 0ZM39.8751 35.6104C44.4315 35.6104 48.1251 31.9045 48.1251 27.3331C48.1251 22.7617 44.4315 19.0559 39.8751 19.0559C35.3188 19.0559 31.6251 22.7617 31.6251 27.3331C31.6251 31.9045 35.3188 35.6104 39.8751 35.6104ZM56.375 48.0258C56.375 52.1643 39.875 52.1643 39.875 52.1643C39.875 52.1643 23.375 52.1643 23.375 48.0258C23.375 43.0595 31.4188 37.6794 39.875 37.6794C48.3312 37.6794 56.375 43.0595 56.375 48.0258ZM21.3125 25.2637V31.4715H27.5V35.6101H21.3125V41.8179H17.1875V35.6101H11V31.4715H17.1875V25.2637H21.3125Z" fill="white"/>
</svg>
