<svg width="66" height="77" viewBox="0 0 66 77" fill="none" xmlns="http://www.w3.org/2000/svg">
<path d="M3.0601 65.4966H31.621C31.8915 65.4966 32.151 65.3888 32.3423 65.1968C32.5336 65.0049 32.641 64.7446 32.641 64.4732C32.641 64.2018 32.5336 63.9415 32.3423 63.7496C32.151 63.5576 31.8915 63.4498 31.621 63.4498H3.0601C2.78957 63.4498 2.53012 63.342 2.33882 63.1501C2.14753 62.9581 2.04006 62.6978 2.04006 62.4264V3.07015C2.04006 2.79873 2.14753 2.53843 2.33882 2.34651C2.53012 2.15459 2.78957 2.04677 3.0601 2.04677H45.9015C46.172 2.04677 46.4314 2.15459 46.6227 2.34651C46.814 2.53843 46.9215 2.79873 46.9215 3.07015V13.304C46.9215 13.5754 47.029 13.8357 47.2202 14.0276C47.4115 14.2196 47.671 14.3274 47.9415 14.3274C48.212 14.3274 48.4715 14.2196 48.6628 14.0276C48.8541 13.8357 48.9615 13.5754 48.9615 13.304V3.07015C48.9615 1.37747 47.5886 0 45.9015 0H3.0601C1.37296 0 0 1.37747 0 3.07015V62.4264C0 64.1191 1.37296 65.4966 3.0601 65.4966Z" fill="white"/>
<path d="M36.7212 21.4906V62.4264C36.7212 64.1191 38.0942 65.4966 39.7813 65.4966H62.222C63.9091 65.4966 65.2821 64.1191 65.2821 62.4264V21.4906C65.2821 19.7979 63.9091 18.4204 62.222 18.4204H39.7813C38.0942 18.4204 36.7212 19.7979 36.7212 21.4906ZM63.242 21.4906V62.4264C63.242 62.6978 63.1346 62.9581 62.9433 63.15C62.752 63.342 62.4925 63.4498 62.222 63.4498H39.7813C39.5108 63.4498 39.2513 63.342 39.06 63.15C38.8687 62.9581 38.7613 62.6978 38.7613 62.4264V21.4906C38.7613 21.2192 38.8687 20.9589 39.06 20.7669C39.2513 20.575 39.5108 20.4672 39.7813 20.4672H62.222C62.4925 20.4672 62.752 20.575 62.9433 20.7669C63.1346 20.9589 63.242 21.2192 63.242 21.4906Z" fill="white"/>
<path d="M24.4807 59.355C25.6074 59.355 26.5208 58.4389 26.5208 57.309C26.5208 56.179 25.6074 55.2629 24.4807 55.2629C23.354 55.2629 22.4407 56.179 22.4407 57.309C22.4407 58.4389 23.354 59.355 24.4807 59.355Z" fill="white"/>
<path d="M51.0016 59.355C52.1283 59.355 53.0417 58.4389 53.0417 57.309C53.0417 56.179 52.1283 55.2629 51.0016 55.2629C49.8749 55.2629 48.9615 56.179 48.9615 57.309C48.9615 58.4389 49.8749 59.355 51.0016 59.355Z" fill="white"/>
<path d="M15.6547 47.1443V38.6135C15.6547 37.1011 16.2022 35.6507 17.1768 34.5813C18.1513 33.5119 19.4731 32.9111 20.8513 32.9111C22.2296 32.9111 23.5513 33.5119 24.5259 34.5813C25.5004 35.6507 26.0479 37.1011 26.0479 38.6135V47.1443C28.5631 45.2967 30.2052 42.1718 30.2052 38.6135C30.2052 32.9339 26.0271 28.3491 20.8513 28.3491C15.6755 28.3491 11.4975 32.9339 11.4975 38.6135C11.4975 42.1718 13.1396 45.2967 15.6547 47.1443ZM36.1085 57.7052L26.6715 52.5502C26.3181 52.3906 25.944 52.2993 25.549 52.2993H23.9693V38.6135C23.9693 36.7203 22.5766 35.192 20.8513 35.192C19.1261 35.192 17.7334 36.7203 17.7334 38.6135V63.1111L10.6037 61.4688C10.4374 61.446 10.2919 61.4004 10.1048 61.4004C9.46042 61.4004 8.8784 61.6969 8.46268 62.1531L6.82056 63.9779L17.089 75.2459C17.6502 75.8617 18.4401 76.2495 19.2924 76.2495H33.4063C34.9653 76.2495 36.1709 74.995 36.3995 73.3299L37.9585 61.3092C37.9793 61.1495 38.0001 60.9898 38.0001 60.853C38.0001 59.4388 37.2102 58.207 36.1085 57.7052Z" fill="white"/>
</svg>
