<svg width="98" height="96" viewBox="0 0 98 96" fill="none" xmlns="http://www.w3.org/2000/svg">
<path d="M2.66675 65.8157H29.3334V92.5698H2.66675V65.8157Z" fill="white"/>
<path d="M78.1331 34.5133L63.1998 19.5308C62.1331 18.4606 62.1331 16.8553 63.1998 15.7851L78.1331 0.802635C79.1998 -0.267545 80.7998 -0.267545 81.8664 0.802635L96.7998 15.7851C97.8664 16.8553 97.8664 18.4606 96.7998 19.5308L81.8664 34.5133C80.7998 35.5835 79.1998 35.5835 78.1331 34.5133Z" fill="white"/>
<path d="M16 33.7107C24.8366 33.7107 32 26.5237 32 17.6581C32 8.79247 24.8366 1.60547 16 1.60547C7.16344 1.60547 0 8.79247 0 17.6581C0 26.5237 7.16344 33.7107 16 33.7107Z" fill="white"/>
<path d="M80 95.2456C88.8366 95.2456 96 88.0586 96 79.1929C96 70.3272 88.8366 63.1401 80 63.1401C71.1634 63.1401 64 70.3272 64 79.1929C64 88.0586 71.1634 95.2456 80 95.2456Z" fill="white"/>
<path d="M13.3333 47.0876H18.6666V60.4648H13.3333V47.0876Z" fill="white"/>
<path d="M16 39.0615L8 49.7629H24L16 39.0615Z" fill="white"/>
<path d="M37.3333 14.9824H50.6666V20.3333H37.3333V14.9824Z" fill="white"/>
<path d="M58.6665 17.6581L47.9999 9.63184V25.6843L58.6665 17.6581Z" fill="white"/>
<path d="M77.3334 39.0615H82.6667V52.4385H77.3334V39.0615Z" fill="white"/>
<path d="M80 60.4648L88 49.7629H72L80 60.4648Z" fill="white"/>
</svg>
