<svg width="73" height="51" viewBox="0 0 73 51" fill="none" xmlns="http://www.w3.org/2000/svg">
<path d="M70.3211 0H25.1147C23.6329 0 22.4358 1.18766 22.4358 2.65771V22.2583H2.6789C1.19713 22.2583 0 23.446 0 24.916V47.5066C0 48.9766 1.19713 50.1643 2.6789 50.1643H47.8853C49.3671 50.1643 50.5642 48.9766 50.5642 47.5066V27.906H70.3211C71.8029 27.906 73 26.7183 73 25.2483V2.65771C73 1.18766 71.8029 0 70.3211 0ZM44.8716 44.5167H28.1284V27.906H44.8716V44.5167ZM67.3073 22.2583H50.5642V5.64764H67.3073V22.2583Z" fill="white"/>
</svg>
