<svg width="90" height="89" viewBox="0 0 90 89" fill="none" xmlns="http://www.w3.org/2000/svg">
<path fill-rule="evenodd" clip-rule="evenodd" d="M71.221 6.12793L72.5 17L83.0023 17.9266L89.5 18.5L84.8876 23.1124L72.5 35.5H56.5L38.5 52L35 47.5L52 32V17L65.9567 4.17493L70.5 0L71.221 6.12793ZM72.0606 21.9806L78.3899 22.5391L70.429 30.5H58.2156L57 29.5546V19.1958L66.6777 10.3029L67.5343 17.5842L68.0094 21.6232L72.0606 21.9806ZM77.3705 38.2715C79.8475 46.6257 79.4925 55.5646 76.3609 63.696C73.2292 71.8275 67.4966 78.6953 60.0558 83.23C52.615 87.7645 43.8835 89.7115 35.221 88.7676C26.5586 87.8236 18.4514 84.0417 12.1618 78.011C5.87235 71.9801 1.75352 64.0388 0.446754 55.4237C-0.860008 46.8085 0.718666 38.0029 4.93687 30.3783C9.15513 22.7537 15.7762 16.7378 23.7691 13.2676C31.762 9.79736 40.6781 9.0675 49.1289 11.1917L47.4722 17.7828C40.4754 16.0242 33.0934 16.6285 26.4757 19.5017C19.8581 22.3749 14.3763 27.3556 10.8838 33.6683C7.39133 39.9811 6.08427 47.2716 7.16618 54.4044C8.24809 61.5374 11.6582 68.1122 16.8656 73.1053C22.073 78.0985 28.7853 81.2297 35.9573 82.0112C43.1292 82.7927 50.3584 81.1808 56.519 77.4264C62.6796 73.672 67.4258 67.986 70.0187 61.2535C72.6115 54.5211 72.9054 47.1202 70.8545 40.2034L77.3705 38.2715ZM56.5462 56.6888C58.105 52.9926 58.4201 48.8896 57.4441 44.9987L52.0406 46.3541C52.7228 49.0735 52.5025 51.9408 51.4131 54.524C50.3237 57.1073 48.4241 59.2665 46.0006 60.676C43.5772 62.0857 40.7613 62.6694 37.9772 62.3391C35.1932 62.0089 32.5919 60.7827 30.5654 58.8453C28.539 56.908 27.1971 54.3644 26.7422 51.5979C26.2873 48.8315 26.7439 45.9922 28.0433 43.5079C29.3426 41.0236 31.4142 39.0289 33.946 37.8246C36.4776 36.6202 39.3323 36.2715 42.0794 36.8308L43.1909 31.3719C39.2599 30.5715 35.1754 31.0707 31.5528 32.7939C27.9303 34.5172 24.966 37.3713 23.1068 40.926C21.2477 44.4807 20.5943 48.5435 21.2452 52.502C21.8962 56.4603 23.8161 60.0999 26.7157 62.8721C29.6153 65.6442 33.3374 67.3988 37.3211 67.8712C41.3047 68.3438 45.334 67.5085 48.8016 65.4916C52.2693 63.4746 54.9873 60.3851 56.5462 56.6888Z" fill="white"/>
</svg>
