<svg width="94" height="56" viewBox="0 0 94 56" fill="none" xmlns="http://www.w3.org/2000/svg">
<path fill-rule="evenodd" clip-rule="evenodd" d="M9.39996 4.13855V51.3179H84.6V4.13855C84.6 3.04092 84.1048 1.98828 83.2234 1.21216C82.342 0.436035 81.1465 0 79.9 0H14.1C12.8534 0 11.658 0.436035 10.7766 1.21216C9.89514 1.98828 9.39996 3.04092 9.39996 4.13855ZM80.84 3.31104H13.1599V48.0076H80.84V3.31104ZM37.67 51.4077H0V53.2937C0 54.6824 2.62354 55.1797 4.7 55.1797H89.3C91.3765 55.1797 94 54.6824 94 53.2937V51.4077H56.3297C56.2069 51.839 55.9291 52.2248 55.5364 52.507C55.1167 52.8086 54.5915 52.9732 54.0498 52.9731H39.9498C39.4082 52.9729 38.8832 52.8082 38.4636 52.5067C38.071 52.2245 37.7931 51.8388 37.67 51.4077ZM48.8659 13.6021L57.1144 17.3433C57.8791 17.6893 58.3817 18.5077 58.3817 19.4149C58.3817 29.7641 52.5434 35.5302 48.8616 37.1997C48.3547 37.4289 47.7833 37.4289 47.2764 37.1997C42.6796 35.114 37.7606 28.6978 37.7606 19.4149C37.7606 18.5077 38.2633 17.6893 39.0323 17.3433L47.2807 13.6021C47.5319 13.4886 47.8013 13.4302 48.0733 13.4302C48.3453 13.4302 48.6147 13.4886 48.8659 13.6021ZM48.0712 16.4828L48.0755 34.3003C52.1009 32.121 55.4862 26.9909 55.6279 19.9106L48.0712 16.4828Z" fill="white"/>
</svg>
