<svg width="77" height="71" viewBox="0 0 77 71" fill="none" xmlns="http://www.w3.org/2000/svg">
<path fill-rule="evenodd" clip-rule="evenodd" d="M61.5983 0.0393505C62.129 -0.113559 62.6832 0.192696 62.8361 0.723391L65.3279 9.37156C65.4808 9.90226 65.1745 10.4564 64.6438 10.6093C64.1131 10.7622 63.559 10.456 63.4061 9.9253L61.579 3.58436C54.8972 15.4486 49.4466 22.9863 41.1361 28.8036C32.3847 34.9296 20.5389 39.0914 0.957924 44.5878L0.417411 42.6622C20.0239 37.1586 31.5531 33.0704 39.9892 27.1652C47.9212 21.6128 53.1873 14.4039 59.8192 2.63333L53.5039 4.45297C52.9732 4.60588 52.419 4.29963 52.2661 3.76893C52.1132 3.23824 52.4194 2.68407 52.9501 2.53116L61.5983 0.0393505ZM20 58.6878H2L2 68.4378H20V58.6878ZM2 56.6878C0.895431 56.6878 0 57.5832 0 58.6878V68.4378C0 69.5423 0.89543 70.4378 2 70.4378H20C21.1046 70.4378 22 69.5423 22 68.4378V58.6878C22 57.5832 21.1046 56.6878 20 56.6878H2ZM29.5 58.6878H47.5V68.4378H29.5V58.6878ZM27.5 58.6878C27.5 57.5832 28.3954 56.6878 29.5 56.6878H47.5C48.6046 56.6878 49.5 57.5832 49.5 58.6878V68.4378C49.5 69.5423 48.6046 70.4378 47.5 70.4378H29.5C28.3954 70.4378 27.5 69.5423 27.5 68.4378V58.6878ZM47.5 42.1878H29.5V51.9378H47.5V42.1878ZM29.5 40.1878C28.3954 40.1878 27.5 41.0832 27.5 42.1878V51.9378C27.5 53.0423 28.3954 53.9378 29.5 53.9378H47.5C48.6046 53.9378 49.5 53.0423 49.5 51.9378V42.1878C49.5 41.0832 48.6046 40.1878 47.5 40.1878H29.5ZM57 58.6878H75V68.4378H57V58.6878ZM55 58.6878C55 57.5832 55.8954 56.6878 57 56.6878H75C76.1046 56.6878 77 57.5832 77 58.6878V68.4378C77 69.5423 76.1046 70.4378 75 70.4378H57C55.8954 70.4378 55 69.5423 55 68.4378V58.6878ZM75 42.1875H57V51.9375H75V42.1875ZM57 40.1875C55.8954 40.1875 55 41.0829 55 42.1875V51.9375C55 53.0421 55.8954 53.9375 57 53.9375H75C76.1046 53.9375 77 53.0421 77 51.9375V42.1875C77 41.0829 76.1046 40.1875 75 40.1875H57ZM57 25.6875H75V35.4375H57V25.6875ZM55 25.6875C55 24.5829 55.8954 23.6875 57 23.6875H75C76.1046 23.6875 77 24.5829 77 25.6875V35.4375C77 36.5421 76.1046 37.4375 75 37.4375H57C55.8954 37.4375 55 36.5421 55 35.4375V25.6875Z" fill="white"/>
</svg>
