<svg width="75" height="56" viewBox="0 0 75 56" fill="none" xmlns="http://www.w3.org/2000/svg">
<path fill-rule="evenodd" clip-rule="evenodd" d="M28 28C35.732 28 42 21.732 42 14C42 6.26801 35.732 0 28 0C20.268 0 14 6.26801 14 14C14 21.732 20.268 28 28 28ZM46.6668 14C46.6668 19.7685 44.0503 24.9258 39.9393 28.3499C42.0783 30.9837 45.3427 32.6667 49.0001 32.6667C55.4435 32.6667 60.6668 27.4433 60.6668 21C60.6668 14.5567 55.4435 9.33333 49.0001 9.33333C48.0221 9.33333 47.0723 9.45367 46.1645 9.68035C46.493 11.0668 46.6668 12.5131 46.6668 14ZM60.3317 56L74.6667 56C74.6667 51.0493 72.2083 46.3013 67.8325 42.8007C63.4566 39.3 57.5217 37.3333 51.3333 37.3333C51.1773 37.3333 51.0214 37.3346 50.8657 37.3371C50.9438 37.4136 51.0215 37.4905 51.0988 37.5678C56.1142 42.5833 59.3304 49.0616 60.3317 56ZM8.20101 39.5008C2.94999 43.8767 0 49.8116 0 56H28L56 56C56 49.8116 53.05 43.8767 47.799 39.5008C42.548 35.125 35.4261 32.6667 28 32.6667C20.5739 32.6667 13.452 35.125 8.20101 39.5008Z" fill="white"/>
</svg>
