<svg width="90" height="56" viewBox="0 0 90 56" fill="none" xmlns="http://www.w3.org/2000/svg">
<path d="M73.2 4.1308L81.12 0C82.464 3.69342 87.6 18.0621 90 24.7848C89.68 25.1898 87.84 26.1941 83.04 26.9717C78.24 27.7492 74.48 12.0684 73.2 4.1308Z" fill="white"/>
<path d="M21.36 39.607C19.824 37.2743 14.96 35.2332 12.72 34.5042C15.984 27.5062 19.84 17.1711 21.36 12.8783C22.128 13.4615 24.08 14.2552 24.96 14.5792C26.48 15.0652 29.76 15.8428 30.72 15.0652C31.6441 14.3167 33.3837 14.2587 34.226 14.3277C34.2622 14.3239 34.2937 14.3274 34.32 14.3362C34.2901 14.3332 34.2587 14.3303 34.226 14.3277C33.9317 14.358 33.3239 14.8619 32.64 16.7661C31.872 18.9044 30.24 21.0589 29.52 21.8689C28.48 22.6788 27.12 24.7847 30 26.7286C33.6 29.1585 36 26.7286 36.96 26.2427C37.92 25.7567 38.88 24.7847 40.32 22.5978C41.76 20.4109 45.6 17.7381 49.44 20.8969C52.512 23.424 63.68 29.5635 68.88 32.3173C70.56 33.2893 73.584 36.108 72.24 39.607C70.896 43.106 67.04 41.0649 65.28 39.607C68.544 45.0499 63.92 47.0586 61.2 47.3826C62.352 53.0199 57.68 52.4854 55.2 51.5134C54.624 55.2068 50.32 54.6723 48.24 53.9433C49.008 48.1116 45.36 46.8156 43.44 46.8966C43.056 41.4537 39.12 41.5509 37.2 42.2799C35.664 38.5864 31.12 39.931 29.04 41.0649C25.968 36.9827 22.64 38.392 21.36 39.607Z" fill="white"/>
<path d="M39.12 12.3924C42.384 11.2261 42 10.4485 44.64 8.99057C46.08 8.19534 48.48 8.09455 50.64 8.50459C53.712 9.08776 60.24 9.07156 63.12 8.99057C67.344 8.99057 70.64 7.04666 71.76 6.07471C73.104 16.3774 77.12 24.7848 78.96 27.7007C74.736 31.7829 72.88 32.8034 72.48 32.8034C68.4 29.6446 62.64 26.9717 55.68 22.5979C48.72 18.2241 46.56 17.4952 45.12 17.4952C43.6801 17.4952 40.8 18.4671 38.64 22.1119C36.48 25.7567 34.8 25.9997 32.64 26.2427C30.48 26.4857 29.28 23.8128 31.2 22.5979C32.736 21.6259 33.92 18.7911 34.32 17.4952C34.56 16.2802 35.856 13.5587 39.12 12.3924Z" fill="white"/>
<path d="M11.04 7.04663L0 32.3174C1.12 32.9654 4.08 34.4557 6.96 35.2333C9.84 36.0108 11.52 33.6133 12 32.3174C13.84 27.7816 17.808 17.8839 18.96 14.5793C20.112 11.2746 18.96 10.2055 18 9.7195L11.04 7.04663Z" fill="white"/>
<ellipse rx="3.52284" ry="4.85226" transform="matrix(0.933294 0.359114 -0.351432 0.936213 32.1131 45.9009)" fill="white"/>
<ellipse rx="3.08221" ry="4.75471" transform="matrix(0.967245 0.253843 -0.248024 0.968754 38.4807 48.5937)" fill="white"/>
<ellipse rx="2.26891" ry="3.57377" transform="matrix(0.79496 -0.606661 0.597162 0.80212 25.556 42.898)" fill="white"/>
<ellipse rx="2.51314" ry="3.58928" transform="matrix(0.995023 0.0996402 -0.0972279 0.995262 43.8894 52.1773)" fill="white"/>
</svg>
